# Blender v2.77 (sub 0) OBJ File: 'untitled.blend'
# www.blender.org
mtllib lower_chest.mtl
o Cube.001_Cube.005
v 4.745657 2.897239 13.804591
v 3.672585 3.695256 13.804591
v 4.745657 2.897239 13.090261
v 3.672585 3.695256 13.090261
v 4.730981 3.482344 13.804591
v 4.411852 3.707931 13.804591
v 4.730981 3.482344 13.090261
v 4.411852 3.707931 13.090261
v 3.676734 3.379727 13.804591
v 3.676734 3.379727 13.090261
v 4.352951 2.873203 13.090261
v 4.352951 2.873203 13.804591
vn 0.0611 -0.9981 0.0000
vn -0.0000 0.0000 -1.0000
vn 0.5772 0.8166 0.0000
vn 0.0000 0.0000 1.0000
vn 0.9997 0.0251 0.0000
vn -0.0171 0.9999 0.0000
vn -0.9999 -0.0131 0.0000
vn -0.5995 -0.8004 0.0000
usemtl None
s off
f 12//1 11//1 3//1 1//1
f 4//2 8//2 7//2 3//2 11//2 10//2
f 8//3 6//3 5//3 7//3
f 6//4 2//4 9//4 12//4 1//4 5//4
f 1//5 3//5 7//5 5//5
f 6//6 8//6 4//6 2//6
f 2//7 4//7 10//7 9//7
f 9//8 10//8 11//8 12//8
