# Blender v2.77 (sub 0) OBJ File: 'untitled.blend'
# www.blender.org
mtllib should_pad.mtl
o Cube.003_Cube.007
v 8.395456 0.927818 13.929581
v 8.320803 2.316828 13.929581
v 8.395456 0.927818 12.965023
v 8.320803 2.316828 12.965023
v 8.713098 0.937250 13.929581
v 8.643956 2.316828 13.929581
v 8.713098 0.937250 12.965023
v 8.643956 2.316828 12.965023
v 8.777515 1.627039 12.965023
v 8.777515 1.627039 13.929581
v 8.255502 1.622323 13.929581
v 8.255502 1.622323 12.965023
vn -0.9803 -0.1975 0.0000
vn 0.0000 0.0000 -1.0000
vn 0.9957 -0.0930 0.0000
vn 0.0000 0.0000 1.0000
vn 0.0297 -0.9996 0.0000
vn 0.0000 1.0000 0.0000
vn 0.9818 0.1901 0.0000
vn -0.9956 0.0936 0.0000
usemtl None
s off
f 11//1 12//1 3//1 1//1
f 4//2 8//2 9//2 7//2 3//2 12//2
f 9//3 10//3 5//3 7//3
f 6//4 2//4 11//4 1//4 5//4 10//4
f 1//5 3//5 7//5 5//5
f 6//6 8//6 4//6 2//6
f 8//7 6//7 10//7 9//7
f 2//8 4//8 12//8 11//8
