# Blender v2.77 (sub 0) OBJ File: 'untitled.blend'
# www.blender.org
mtllib untitled.mtl
o Cube_Cube.004
v 0.560219 0.395639 1.627055
v 0.528375 0.537450 1.627055
v 0.560219 0.395639 1.546835
v 0.528375 0.537450 1.546835
v 0.624904 0.397404 1.627055
v 0.620199 0.537450 1.627055
v 0.624904 0.397404 1.546835
v 0.620199 0.537450 1.546835
v 0.644093 0.437581 1.546835
v 0.644093 0.437581 1.627055
v 0.518005 0.454215 1.627055
v 0.518005 0.454215 1.546835
v 0.548641 0.428254 1.546835
v 0.548641 0.428254 1.627055
v 0.558499 0.410283 1.546835
v 0.535395 0.444018 1.627055
v 0.535395 0.444018 1.546835
v 0.558499 0.410283 1.627055
v 0.560206 0.402961 1.546835
v 0.526941 0.450221 1.627055
v 0.542094 0.436787 1.546835
v 0.554614 0.419420 1.627055
v 0.554614 0.419420 1.546835
v 0.542094 0.436787 1.627055
v 0.526941 0.450221 1.546835
v 0.560206 0.402961 1.627055
vn -0.9923 0.1236 0.0000
vn -0.0000 0.0000 -1.0000
vn 0.9726 0.2327 0.0000
vn 0.0000 0.0000 1.0000
vn 0.0273 -0.9996 0.0000
vn 0.0000 1.0000 0.0000
vn 0.9024 -0.4310 0.0000
vn -1.0000 -0.0017 0.0000
vn -0.7933 -0.6088 0.0000
vn -0.5915 -0.8063 0.0000
vn -0.9203 -0.3913 0.0000
vn -0.8284 -0.5601 0.0000
vn -0.4081 -0.9129 0.0000
vn -0.7336 -0.6796 0.0000
vn -0.9739 -0.2270 0.0000
usemtl None
s off
f 2//1 4//1 12//1 11//1
f 4//2 8//2 9//2 7//2 3//2 19//2 15//2 23//2 13//2 21//2 17//2 25//2 12//2
f 8//3 6//3 10//3 9//3
f 6//4 2//4 11//4 20//4 16//4 24//4 14//4 22//4 18//4 26//4 1//4 5//4 10//4
f 1//5 3//5 7//5 5//5
f 6//6 8//6 4//6 2//6
f 9//7 10//7 5//7 7//7
f 26//8 19//8 3//8 1//8
f 24//9 21//9 13//9 14//9
f 20//10 25//10 17//10 16//10
f 22//11 23//11 15//11 18//11
f 14//12 13//12 23//12 22//12
f 11//13 12//13 25//13 20//13
f 16//14 17//14 21//14 24//14
f 18//15 15//15 19//15 26//15
